PathFileType	4	(x/y/z)	S09_BK_Cal_T01
DataRate	CameraRate	NumFrames	NumMarkers	Units	OrigDataRate	OrigDataStartFrame	OrigNumFrames
240	240	8	51	mm	240	1801	2400
Frame#	Time	Sternum			R.Acromium			L.Acromium			Top.Head			R.ASIS			L.ASIS			R.PSIS			L.PSIS			R.Great.Tro			L.Great.Tro			R.Iliac.Crest			L.Iliac.Crest			V.Sacral			R.Thigh.Upper.Post			R.Thigh.Lower.Ant			R.Thigh.Lower.Post			R.Thigh.Upper.Ant			R.Knee.Lat			R.Knee.Med			R.Shank.Upper.Post			R.Shank.Lower.Ant			R.Shank.Lower.Post			R.Shank.Upper.Ant			R.Ankle.Lat			R.Ankle.Med			R.Heel.Upper			R.Heel.Med			R.Heel.Lat			R.Toe.Lat			R.Toe.Med			R.Toe.Tip			L.Thigh.Upper.Post			L.Thigh.Lower.Ant			L.Thigh.Lower.Post			L.Thigh.Upper.Ant			L.Knee.Lat			L.Knee.Med			L.Shank.Upper.Post			L.Shank.Lower.Ant			L.Shank.Lower.Post			L.Shank.Upper.Ant			L.Ankle.Lat			L.Ankle.Med			L.Heel.Upper			L.Heel.Med			L.Heel.Lat			L.Toe.Lat			L.Toe.Med			L.Toe.Tip			Cervical.Spine			Back			
		X1	Y1	Z1	X2	Y2	Z2	X3	Y3	Z3	X4	Y4	Z4	X5	Y5	Z5	X6	Y6	Z6	X7	Y7	Z7	X8	Y8	Z8	X9	Y9	Z9	X10	Y10	Z10	X11	Y11	Z11	X12	Y12	Z12	X13	Y13	Z13	X14	Y14	Z14	X15	Y15	Z15	X16	Y16	Z16	X17	Y17	Z17	X18	Y18	Z18	X19	Y19	Z19	X20	Y20	Z20	X21	Y21	Z21	X22	Y22	Z22	X23	Y23	Z23	X24	Y24	Z24	X25	Y25	Z25	X26	Y26	Z26	X27	Y27	Z27	X28	Y28	Z28	X29	Y29	Z29	X30	Y30	Z30	X31	Y31	Z31	X32	Y32	Z32	X33	Y33	Z33	X34	Y34	Z34	X35	Y35	Z35	X36	Y36	Z36	X37	Y37	Z37	X38	Y38	Z38	X39	Y39	Z39	X40	Y40	Z40	X41	Y41	Z41	X42	Y42	Z42	X43	Y43	Z43	X44	Y44	Z44	X45	Y45	Z45	X46	Y46	Z46	X47	Y47	Z47	X48	Y48	Z48	X49	Y49	Z49	X50	Y50	Z50	X51	Y51	Z51	

1801	7.5	568.27	1099.9	285.11	462.5	1368.4	430.47	476.29	1365.9	115.43	523.96	1669.7	287.74	462.15	945.06	388.31	465.37	941.59	142.9	251.5	1006.3	307.47	258.45	1006.4	216.9	373.93	879.88	463.27	388.81	871.22	72.279	393.14	1039.1	428.27	389.81	1050.8	104.7	229.99	974.18	258.9	459.09	644.78	456.96	566.19	578.32	426.92	489.98	558.11	431.22	529.88	659.03	450.57	569.99	494.66	417.87	567.91	482.22	296.01	463.44	344.99	429.47	510.24	267.09	417.82	438.23	272.76	422.39	528.51	338.3	426.34	396.95	96.133	406.42	431.29	100.53	321.74	333.08	77.208	358.51	342.65	44.3	330.73	334.46	48.31	395.59	492.37	41.11	453.04	542.13	44.839	347.92	589.01	60.61	395.05	423.69	608.01	111.86	537.72	550.47	103.59	476.22	533.15	130.34	489.66	623.15	80.698	550.53	475.08	114.68	577.28	491.77	245.6	481.29	368.49	102.68	516.47	264.45	115.03	459.87	294.78	107.59	537.75	339.85	110.11	412.87	107.08	131.18	426.15	93.827	224.94	336.84	71.011	176.07	347.36	45.831	208.83	337.9	43.725	147.4	511.53	44.049	95.13	547.5	42.52	203.8	599.92	59.687	146.63	398.13	1424.7	280.96	310.59	1177.3	260.31
1802	7.5042	568.28	1099.9	285.13	462.5	1368.4	430.47	476.28	1365.9	115.44	523.93	1669.8	287.75	462.14	945.07	388.32	465.36	941.6	142.91	251.48	1006.3	307.49	258.43	1006.4	216.9	373.91	879.89	463.28	388.79	871.24	72.293	393.13	1039.1	428.27	389.84	1050.8	104.74	229.96	974.22	258.92	459.07	644.79	456.96	566.17	578.33	426.92	489.98	558.12	431.23	529.86	659.04	450.57	569.96	494.66	417.87	567.88	482.23	296.01	463.43	344.99	429.47	510.22	267.09	417.81	438.22	272.77	422.4	528.49	338.3	426.34	396.95	96.132	406.42	431.28	100.54	321.74	333.08	77.206	358.51	342.65	44.296	330.73	334.46	48.308	395.59	492.36	41.11	453.04	542.13	44.842	347.92	589.01	60.615	395.05	423.66	608.02	111.86	537.7	550.5	103.58	476.2	533.17	130.33	489.64	623.17	80.702	550.51	475.09	114.68	577.25	491.78	245.6	481.26	368.5	102.68	516.44	264.46	115.02	459.84	294.8	107.59	537.73	339.86	110.1	412.86	107.08	131.18	426.14	93.827	224.93	336.84	71.009	176.07	347.36	45.829	208.83	337.9	43.723	147.4	511.53	44.048	95.13	547.5	42.526	203.8	599.91	59.691	146.62	398.12	1424.8	280.97	310.59	1177.3	260.33
1803	7.5083	568.3	1100	285.16	462.49	1368.5	430.48	476.27	1365.9	115.45	523.89	1669.8	287.76	462.13	945.08	388.33	465.35	941.61	142.93	251.47	1006.3	307.5	258.41	1006.4	216.91	373.9	879.9	463.29	388.78	871.26	72.306	393.13	1039.1	428.27	389.86	1050.9	104.78	229.94	974.25	258.94	459.05	644.8	456.96	566.15	578.34	426.91	489.98	558.13	431.24	529.84	659.05	450.57	569.94	494.67	417.87	567.85	482.24	296	463.41	345	429.48	510.21	267.1	417.8	438.21	272.77	422.41	528.48	338.31	426.34	396.95	96.131	406.42	431.28	100.54	321.74	333.08	77.203	358.51	342.64	44.291	330.73	334.46	48.305	395.59	492.36	41.111	453.04	542.13	44.845	347.92	589	60.619	395.05	423.63	608.03	111.85	537.68	550.52	103.58	476.17	533.18	130.32	489.62	623.19	80.704	550.48	475.11	114.68	577.22	491.78	245.6	481.23	368.5	102.68	516.42	264.48	115.02	459.82	294.81	107.59	537.71	339.86	110.09	412.85	107.09	131.18	426.14	93.827	224.93	336.84	71.007	176.06	347.36	45.827	208.83	337.9	43.72	147.4	511.53	44.048	95.129	547.5	42.531	203.8	599.91	59.696	146.62	398.11	1424.8	280.98	310.58	1177.4	260.34
1804	7.5125	568.31	1100	285.18	462.49	1368.5	430.49	476.26	1366	115.46	523.86	1669.8	287.77	462.12	945.08	388.34	465.33	941.62	142.94	251.46	1006.3	307.52	258.38	1006.4	216.92	373.89	879.91	463.3	388.76	871.27	72.318	393.13	1039.1	428.27	389.88	1050.9	104.81	229.91	974.28	258.96	459.04	644.81	456.96	566.13	578.35	426.91	489.98	558.15	431.24	529.83	659.05	450.57	569.92	494.68	417.86	567.83	482.25	296	463.4	345	429.48	510.2	267.1	417.79	438.2	272.78	422.42	528.47	338.31	426.34	396.95	96.129	406.42	431.27	100.54	321.75	333.07	77.201	358.51	342.64	44.286	330.73	334.46	48.302	395.59	492.36	41.112	453.04	542.12	44.848	347.92	589	60.622	395.05	423.6	608.04	111.84	537.66	550.54	103.57	476.15	533.2	130.31	489.61	623.21	80.705	550.46	475.12	114.68	577.19	491.79	245.6	481.2	368.51	102.68	516.4	264.49	115.02	459.8	294.82	107.58	537.68	339.87	110.09	412.84	107.09	131.18	426.14	93.828	224.93	336.84	71.005	176.06	347.36	45.826	208.83	337.9	43.718	147.4	511.52	44.047	95.129	547.49	42.536	203.79	599.91	59.7	146.62	398.1	1424.8	280.99	310.58	1177.4	260.35
1805	7.5167	568.32	1100	285.2	462.49	1368.5	430.49	476.25	1366	115.47	523.82	1669.8	287.77	462.11	945.08	388.35	465.32	941.63	142.95	251.45	1006.3	307.53	258.37	1006.5	216.93	373.88	879.92	463.31	388.75	871.29	72.329	393.12	1039.1	428.28	389.9	1050.9	104.85	229.89	974.3	258.98	459.03	644.82	456.96	566.12	578.35	426.91	489.99	558.16	431.25	529.82	659.06	450.56	569.9	494.68	417.86	567.8	482.26	296	463.39	345.01	429.48	510.19	267.11	417.79	438.19	272.78	422.42	528.46	338.31	426.34	396.95	96.128	406.42	431.27	100.55	321.75	333.07	77.199	358.51	342.63	44.281	330.74	334.46	48.299	395.59	492.36	41.113	453.04	542.12	44.851	347.92	588.99	60.626	395.05	423.57	608.05	111.84	537.65	550.55	103.57	476.12	533.21	130.3	489.59	623.23	80.705	550.44	475.13	114.68	577.16	491.8	245.6	481.18	368.52	102.68	516.37	264.5	115.01	459.77	294.83	107.58	537.66	339.88	110.08	412.83	107.09	131.17	426.13	93.828	224.93	336.83	71.003	176.06	347.36	45.823	208.83	337.9	43.716	147.4	511.52	44.047	95.129	547.49	42.541	203.79	599.9	59.703	146.62	398.08	1424.8	281	310.58	1177.4	260.37
1806	7.5208	568.34	1100.1	285.22	462.5	1368.5	430.5	476.24	1366	115.48	523.79	1669.8	287.78	462.1	945.08	388.36	465.31	941.64	142.96	251.44	1006.3	307.55	258.35	1006.5	216.94	373.87	879.92	463.32	388.73	871.31	72.338	393.12	1039.1	428.28	389.9	1050.9	104.87	229.87	974.32	258.99	459.02	644.83	456.96	566.11	578.36	426.9	490	558.17	431.26	529.81	659.07	450.56	569.89	494.69	417.86	567.77	482.26	295.99	463.38	345.01	429.48	510.18	267.11	417.78	438.18	272.78	422.43	528.45	338.31	426.34	396.95	96.126	406.42	431.26	100.55	321.75	333.07	77.197	358.52	342.63	44.276	330.74	334.46	48.296	395.59	492.36	41.113	453.04	542.12	44.853	347.92	588.99	60.628	395.05	423.55	608.06	111.83	537.63	550.57	103.56	476.1	533.22	130.29	489.57	623.24	80.704	550.42	475.14	114.68	577.14	491.81	245.59	481.15	368.53	102.68	516.35	264.51	115.01	459.75	294.83	107.57	537.64	339.89	110.08	412.82	107.09	131.17	426.13	93.828	224.93	336.83	71.001	176.06	347.35	45.821	208.83	337.9	43.713	147.4	511.52	44.046	95.129	547.49	42.545	203.79	599.9	59.707	146.62	398.07	1424.8	281.01	310.57	1177.4	260.38
1807	7.525	568.35	1100.1	285.24	462.5	1368.5	430.51	476.23	1366	115.49	523.76	1669.8	287.79	462.09	945.08	388.37	465.3	941.64	142.97	251.43	1006.3	307.57	258.33	1006.5	216.95	373.86	879.93	463.32	388.71	871.32	72.346	393.12	1039.1	428.28	389.9	1050.9	104.9	229.85	974.34	259.01	459.02	644.83	456.97	566.1	578.37	426.89	490.01	558.18	431.27	529.81	659.07	450.55	569.88	494.69	417.86	567.75	482.26	295.99	463.37	345.01	429.48	510.18	267.11	417.77	438.18	272.78	422.43	528.44	338.31	426.33	396.95	96.124	406.41	431.26	100.55	321.75	333.06	77.196	358.52	342.62	44.27	330.74	334.45	48.293	395.59	492.36	41.113	453.04	542.12	44.855	347.92	588.99	60.63	395.05	423.52	608.07	111.82	537.62	550.59	103.55	476.08	533.23	130.28	489.55	623.26	80.702	550.4	475.15	114.67	577.12	491.82	245.59	481.13	368.53	102.68	516.33	264.51	115	459.73	294.84	107.57	537.62	339.89	110.07	412.81	107.1	131.17	426.13	93.828	224.92	336.83	70.999	176.06	347.35	45.819	208.83	337.89	43.711	147.4	511.52	44.046	95.128	547.49	42.549	203.79	599.9	59.711	146.62	398.06	1424.8	281.02	310.57	1177.4	260.39
1808	7.5292	568.36	1100.1	285.26	462.5	1368.5	430.52	476.22	1366	115.5	523.73	1669.8	287.79	462.09	945.08	388.37	465.28	941.65	142.98	251.42	1006.3	307.58	258.32	1006.5	216.96	373.86	879.93	463.33	388.7	871.33	72.353	393.13	1039.1	428.28	389.9	1050.9	104.92	229.83	974.35	259.03	459.02	644.84	456.97	566.1	578.37	426.88	490.02	558.19	431.28	529.81	659.08	450.54	569.87	494.7	417.85	567.73	482.27	295.99	463.37	345.01	429.49	510.17	267.11	417.77	438.17	272.78	422.44	528.43	338.31	426.33	396.95	96.122	406.41	431.25	100.55	321.76	333.06	77.194	358.52	342.62	44.266	330.74	334.45	48.29	395.6	492.36	41.114	453.04	542.12	44.857	347.92	588.98	60.632	395.05	423.5	608.07	111.81	537.6	550.6	103.54	476.05	533.24	130.26	489.53	623.27	80.7	550.38	475.15	114.67	577.1	491.82	245.58	481.11	368.54	102.68	516.31	264.52	114.99	459.72	294.84	107.56	537.6	339.9	110.07	412.8	107.1	131.17	426.12	93.828	224.92	336.82	70.997	176.06	347.35	45.817	208.83	337.89	43.709	147.4	511.52	44.045	95.128	547.48	42.553	203.79	599.9	59.714	146.62	398.05	1424.8	281.03	310.57	1177.4	260.41
